Patient4_TMGait_0pt4_02_left_33_EMG.mot
version=1
nRows=13
nColumns=33
inDegrees=no
endheader
time	1LAddLong	2LGlutMax	3LGlutMed	4LIliopsoas	5LSemiMemb	6LBicFemLong	7LRecFem	8LVastMed	9LVastLat	10LGasMed	11LTibAnt	12lTibPost	13LPeroneusLong	14LSol	15LExtDigLong	16LFlexDigLong	17RAddLong	18RGlutMax	19RGlutMed	20RIliopsoas	21RSemiMemb	22RBicFemLong	23RRecFem	24RVastMed	25RVastLat	26RGasMed	27RTibAnt	28RTibPost	29RPeroneusLong	30RSol	31RExtDigLong	32RFlexDigLong
45.085	0	-0.038605	-0.16907	0.003357	0.004578	0.000763	-0.12711	0.011749	-0.049438	-0.006561	-0.070343	-0.003204	0.00946	0.07782	-0.036621	0.010681	-0.11185	0.036621	1.2193	0.085297	0.28763	0.14969	-0.26306	-0.11643	-0.09903	-0.014343	0.22095	0.002899	-0.41489	0.022278	-0.00473	-0.000916
45.086	-0.001678	-0.031281	-0.16235	-0.000916	0.008087	0.010071	-0.12283	0.014343	-0.048981	0.000763	-0.15152	-0.010681	0.050507	0.073395	0.000305	0.002747	-0.056458	-0.12161	0.92331	-0.029907	0.11658	0.029297	-0.24658	-0.012665	0.020294	-0.008545	0.17166	-0.005341	-0.12146	-0.011292	-0.002136	-0.000305
45.087	-0.001831	-0.006256	-0.16968	0.001831	-0.009766	0.010071	-0.13794	0.005493	-0.035858	0.025482	-0.13397	-0.000305	0	0.077057	0.020752	-0.000458	-0.032043	-0.22812	0.62241	-0.056	0.084229	-0.00946	-0.1712	0.12573	0.13763	-0.003815	-0.07843	0.005188	0.96435	-0.041199	0.000305	-0.010376
45.088	-0.003662	0.028839	-0.14771	-0.008698	-0.00473	-0.006104	-0.1561	0.009613	-0.035706	0.00885	-0.077667	-0.010681	-0.013123	0.089111	0.017853	-0.002441	0.009155	-0.21133	0.35446	-0.044403	0.04715	0.03418	-0.2536	0.076294	0.14008	0.00061	-0.16678	0.005035	0.73334	-0.06134	0.001221	-0.012207
45.089	-0.006561	0.027008	-0.1442	0.001984	-0.000916	-0.031738	-0.14618	0.002441	-0.030518	-0.001526	0.2594	-0.016174	-0.000153	0.023499	0.019684	0.007935	0.048676	-0.19821	-0.041962	-0.042419	0.1033	0	-0.19623	0.063629	0.010834	0.001678	-0.085297	-0.000153	0.59265	-0.054474	-0.001984	-0.006561
45.09	0.001068	0.009003	-0.16541	0.00946	-0.000305	0.007782	-0.15991	0.009918	-0.027313	0.00885	0.34958	-0.009308	-0.004883	0.069122	-0.011749	-0.00061	0.080719	-0.25085	-0.12466	-0.053406	0.14725	-0.088959	-0.14221	0.031128	-0.084381	0.002594	-0.020447	0.00061	0.11169	-0.098114	-0.00473	-0.003204
45.091	-0.001068	0.012054	-0.16357	0.021667	-0.010529	0.007324	-0.15076	0.005341	-0.034027	0.011597	0.22064	-0.00351	0.035553	0.033264	-0.17593	-0.002594	0.063019	-0.32654	-0.23987	-0.044556	0.16464	-0.079956	-0.15778	0.005493	-0.16235	0.007935	-0.085144	0.003357	-0.86258	-0.095062	-0.003357	-0.002594
45.092	-0.002136	0.02655	-0.14191	0.010834	-0.010376	-0.049896	-0.14679	0.008698	-0.015411	-0.011139	0.017548	-0.00061	0.040436	0.010529	-0.22781	-0.000458	0.007935	-0.24643	-0.015717	-0.083466	-0.20371	-0.019684	-0.16342	-0.034332	-0.15945	0.002441	-0.46143	0.004272	-0.31311	-0.050354	0.000458	-0.005493
45.093	0.005341	0.04776	-0.13199	0.012817	-0.023193	-0.056458	-0.14084	0.011139	-0.021362	0.025635	-0.032654	0	-0.018463	0.029602	-0.20325	-0.022278	-0.033722	-0.1767	0.12375	-0.10254	-0.39017	0.051422	-0.22461	-0.006409	-0.01297	-0.006866	-0.37399	0.000458	0.30899	0.040436	-0.00061	-0.00473
45.094	0.001984	0.041351	-0.12528	0.024872	-0.010834	-0.063171	-0.13397	0.007324	-0.023041	0.021667	-0.112	-0.006866	-0.043945	-0.012512	0.19928	-0.009918	0.059357	-0.11993	-0.1265	0.009613	0.19134	-0.000153	-0.1236	0.49713	0.074463	-0.012817	-0.020142	0.002136	-0.045166	-0.022583	-0.001068	-0.008392
45.095	0.003204	0.003357	-0.10986	0.015106	-0.005035	-0.075226	-0.1149	0.00412	-0.025024	0.015259	-0.17014	-0.003815	-0.016174	-0.05661	0.23148	-0.008392	0.068054	-0.20981	-0.71701	0.08728	0.21683	-0.10498	-0.15991	0.50064	0.15762	-0.001984	0.067902	0.003357	-0.54901	-0.083008	-0.000916	-0.009613
45.096	-0.002594	0.015411	-0.086975	0.017548	-0.014038	-0.065765	-0.097961	0.005493	-0.026703	0.00946	-0.025787	-0.007172	-0.026703	-0.015106	-0.036926	-0.004425	-0.012512	-0.22354	0.068512	-0.005646	-0.017395	-0.12054	-0.32867	0.43366	0.24124	0.00061	0.14771	-0.000153	-0.7605	-0.10819	-0.001526	-0.006104
45.097	-0.000305	0.014343	-0.083313	-0.00061	-0.001373	-0.051727	-0.097351	0.007324	-0.02594	0.018311	-0.00412	-0.000916	-0.037079	0.013275	0.030518	-0.007782	-0.033417	-0.31052	0.15625	-0.061188	0.011597	-0.091553	-0.52002	0.26382	0.38818	-0.004883	0.18799	0.000305	-0.457	-0.10544	-0.005798	-0.007019
